<svg width="81" height="80" viewBox="0 0 81 80" fill="none" xmlns="http://www.w3.org/2000/svg">
<mask id="mask0_1047_29190" style="mask-type:luminance" maskUnits="userSpaceOnUse" x="0" y="0" width="81" height="80">
<rect x="0.666016" width="80" height="80" fill="white"/>
</mask>
<g mask="url(#mask0_1047_29190)">
<mask id="mask1_1047_29190" style="mask-type:luminance" maskUnits="userSpaceOnUse" x="0" y="9" width="81" height="80">
<rect x="0.666016" y="9.27124" width="80" height="79.7288" fill="white"/>
</mask>
<g mask="url(#mask1_1047_29190)">
<rect x="63.166" y="46.6442" width="8.33334" height="7.47458" fill="#007B55"/>
<path fill-rule="evenodd" clip-rule="evenodd" d="M10.7682 49.6228L35.7963 37.205C37.2211 36.4981 38.896 36.5026 40.3169 37.2171L70.5726 52.4314C71.4034 52.8492 71.7377 53.8604 71.3194 54.69C71.1597 55.0068 70.9038 55.265 70.5883 55.4278L45.2502 68.5046C43.7756 69.2656 42.0207 69.2548 40.5556 68.4757L10.726 52.6136C9.90494 52.177 9.59378 51.1584 10.031 50.3385C10.196 50.029 10.4537 49.7788 10.7682 49.6228Z" fill="#005249"/>
<path fill-rule="evenodd" clip-rule="evenodd" d="M42.333 63.3549V67.534C42.333 68.1583 41.8252 68.6645 41.1987 68.6645C41.0502 68.6645 40.9035 68.6354 40.7668 68.5793L40.6663 68.5322L40.6662 61.0071C41.665 61.3584 42.333 62.2993 42.333 63.3549ZM10.6663 45.1111L40.6663 61.0071V68.5322L10.6662 52.6339L10.6655 52.6147L10.5515 52.5483C10.1061 52.2615 9.83301 51.7674 9.83301 51.233V43.3221L10.6663 45.1111Z" fill="#007B55"/>
<path d="M10.7682 42.1483L35.7963 29.7305C37.2211 29.0236 38.896 29.0281 40.3169 29.7426L70.5726 44.9569C71.4034 45.3747 71.7377 46.3859 71.3194 47.2156C71.1597 47.5323 70.9038 47.7905 70.5883 47.9533L45.2502 61.0301C43.7756 61.7911 42.0207 61.7804 40.5556 61.0013L10.726 45.1391C9.90494 44.7025 9.59378 43.6839 10.031 42.864C10.196 42.5546 10.4537 42.3043 10.7682 42.1483Z" fill="#00AB55"/>
</g>
<mask id="mask2_1047_29190" style="mask-type:luminance" maskUnits="userSpaceOnUse" x="0" y="0" width="81" height="80">
<rect x="0.666016" y="0.13562" width="80" height="79.7288" fill="white"/>
</mask>
<g mask="url(#mask2_1047_29190)">
<rect x="63.166" y="37.5085" width="8.33334" height="7.47458" fill="#007B55"/>
<path fill-rule="evenodd" clip-rule="evenodd" d="M10.7682 40.4872L35.7963 28.0693C37.2211 27.3625 38.896 27.3669 40.3169 28.0815L70.5726 43.2958C71.4034 43.7136 71.7377 44.7248 71.3194 45.5544C71.1597 45.8711 70.9038 46.1293 70.5883 46.2921L45.2502 59.369C43.7756 60.13 42.0207 60.1192 40.5556 59.3401L10.726 43.4779C9.90494 43.0414 9.59378 42.0228 10.031 41.2029C10.196 40.8934 10.4537 40.6432 10.7682 40.4872Z" fill="#005249"/>
<path fill-rule="evenodd" clip-rule="evenodd" d="M42.333 54.2193V58.3984C42.333 59.0227 41.8252 59.5288 41.1987 59.5288C41.0502 59.5288 40.9035 59.4998 40.7668 59.4437L40.6663 59.3966L40.6662 51.8715C41.665 52.2228 42.333 53.1637 42.333 54.2193ZM10.6663 35.9754L40.6663 51.8715V59.3966L10.6662 43.4983L10.6655 43.4791L10.5515 43.4126C10.1061 43.1259 9.83301 42.6318 9.83301 42.0974V34.1865L10.6663 35.9754Z" fill="#007B55"/>
<path d="M10.7682 33.0127L35.7963 20.5949C37.2211 19.888 38.896 19.8925 40.3169 20.607L70.5726 35.8213C71.4034 36.2391 71.7377 37.2503 71.3194 38.0799C71.1597 38.3966 70.9038 38.6549 70.5883 38.8177L45.2502 51.8945C43.7756 52.6555 42.0207 52.6447 40.5556 51.8656L10.726 36.0035C9.90494 35.5669 9.59378 34.5483 10.031 33.7284C10.196 33.4189 10.4537 33.1687 10.7682 33.0127Z" fill="#00AB55"/>
</g>
<mask id="mask3_1047_29190" style="mask-type:luminance" maskUnits="userSpaceOnUse" x="0" y="-9" width="81" height="80">
<rect x="0.666016" y="-9" width="80" height="79.7288" fill="white"/>
</mask>
<g mask="url(#mask3_1047_29190)">
<rect x="63.166" y="28.3729" width="8.33334" height="7.47458" fill="#007B55"/>
<path fill-rule="evenodd" clip-rule="evenodd" d="M10.7682 31.3515L35.7963 18.9337C37.2211 18.2268 38.896 18.2313 40.3169 18.9458L70.5726 34.1602C71.4034 34.5779 71.7377 35.5892 71.3194 36.4188C71.1597 36.7355 70.9038 36.9937 70.5883 37.1565L45.2502 50.2333C43.7756 50.9944 42.0207 50.9836 40.5556 50.2045L10.726 34.3423C9.90494 33.9057 9.59378 32.8872 10.031 32.0673C10.196 31.7578 10.4537 31.5076 10.7682 31.3515Z" fill="#005249"/>
<path fill-rule="evenodd" clip-rule="evenodd" d="M42.333 45.0837V49.2628C42.333 49.8871 41.8252 50.3932 41.1987 50.3932C41.0502 50.3932 40.9035 50.3642 40.7668 50.3081L40.6663 50.261L40.6662 42.7358C41.665 43.0872 42.333 44.028 42.333 45.0837ZM10.6663 26.8398L40.6663 42.7358V50.261L10.6662 34.3627L10.6655 34.3435L10.5515 34.277C10.1061 33.9903 9.83301 33.4961 9.83301 32.9617V25.0509L10.6663 26.8398Z" fill="#007B55"/>
<path d="M10.7682 23.8771L35.7963 11.4592C37.2211 10.7523 38.896 10.7568 40.3169 11.4714L70.5726 26.6857C71.4034 27.1035 71.7377 28.1147 71.3194 28.9443C71.1597 29.261 70.9038 29.5192 70.5883 29.682L45.2502 42.7589C43.7756 43.5199 42.0207 43.5091 40.5556 42.73L10.726 26.8678C9.90494 26.4313 9.59378 25.4127 10.031 24.5928C10.196 24.2833 10.4537 24.0331 10.7682 23.8771Z" fill="#00AB55"/>
</g>
</g>
</svg>
