<svg width="51" height="48" viewBox="0 0 51 48" fill="none" xmlns="http://www.w3.org/2000/svg">
<mask id="mask0_1047_29322" style="mask-type:alpha" maskUnits="userSpaceOnUse" x="5" y="4" width="42" height="41">
<rect x="5.5" y="4" width="41" height="41" fill="#D9D9D9"/>
</mask>
<g mask="url(#mask0_1047_29322)">
<path d="M25.7866 38.1667C25.9005 38.1667 26.0144 38.1383 26.1283 38.0813C26.2422 38.0244 26.3276 37.9674 26.3845 37.9105L40.3929 23.9022C40.7345 23.5605 40.9839 23.1761 41.1411 22.749C41.2971 22.322 41.3752 21.8949 41.3752 21.4678C41.3752 21.0122 41.2971 20.5777 41.1411 20.1643C40.9839 19.7521 40.7345 19.3893 40.3929 19.0761L33.1324 11.8157C32.8193 11.474 32.4565 11.2246 32.0442 11.0675C31.6308 10.9114 31.1963 10.8334 30.7408 10.8334C30.3137 10.8334 29.8866 10.9114 29.4595 11.0675C29.0324 11.2246 28.6481 11.474 28.3064 11.8157L27.8366 12.2855L30.997 15.4886C31.4241 15.8872 31.7373 16.3428 31.9366 16.8553C32.1359 17.3678 32.2356 17.9088 32.2356 18.4782C32.2356 19.674 31.8301 20.6774 31.0192 21.4883C30.2072 22.3003 29.2033 22.7063 28.0074 22.7063C27.438 22.7063 26.8902 22.6067 26.364 22.4074C25.8367 22.2081 25.3738 21.9091 24.9752 21.5105L21.772 18.3501L14.2981 25.824C14.2127 25.9095 14.1483 26.0023 14.105 26.1025C14.0629 26.2016 14.0418 26.3081 14.0418 26.422C14.0418 26.6497 14.1272 26.8559 14.2981 27.0404C14.4689 27.226 14.6682 27.3188 14.896 27.3188C15.0099 27.3188 15.1238 27.2904 15.2377 27.2334C15.3515 27.1765 15.437 27.1195 15.4939 27.0626L21.3022 21.2542L23.6939 23.6459L17.9283 29.4542C17.8429 29.5397 17.7785 29.6319 17.7352 29.731C17.6931 29.8312 17.672 29.9383 17.672 30.0522C17.672 30.2799 17.7574 30.4792 17.9283 30.6501C18.0991 30.8209 18.2984 30.9063 18.5262 30.9063C18.6401 30.9063 18.754 30.8779 18.8679 30.8209C18.9818 30.764 19.0672 30.707 19.1241 30.6501L24.9324 24.8845L27.3241 27.2761L21.5585 33.0845C21.4731 33.1414 21.4093 33.2268 21.3672 33.3407C21.3239 33.4546 21.3022 33.5685 21.3022 33.6824C21.3022 33.9102 21.3877 34.1095 21.5585 34.2803C21.7293 34.4511 21.9286 34.5365 22.1564 34.5365C22.2703 34.5365 22.3773 34.5149 22.4776 34.4716C22.5767 34.4295 22.6689 34.3657 22.7543 34.2803L28.5627 28.5147L30.9543 30.9063L25.146 36.7147C25.0606 36.8001 24.9968 36.8923 24.9547 36.9914C24.9114 37.0916 24.8897 37.1987 24.8897 37.3126C24.8897 37.5404 24.9826 37.7397 25.1682 37.9105C25.3527 38.0813 25.5588 38.1667 25.7866 38.1667ZM25.7439 41.5834C24.6904 41.5834 23.7583 41.2343 22.9474 40.5362C22.1353 39.8392 21.6581 38.964 21.5158 37.9105C20.5477 37.7681 19.7363 37.3695 19.0814 36.7147C18.4265 36.0598 18.0279 35.2483 17.8856 34.2803C16.9175 34.1379 16.1135 33.7325 15.4734 33.064C14.8322 32.3943 14.4404 31.5897 14.2981 30.6501C13.2161 30.5077 12.3335 30.0379 11.6502 29.2407C10.9668 28.4435 10.6252 27.5039 10.6252 26.422C10.6252 25.8525 10.7322 25.3041 10.9463 24.7768C11.1593 24.2507 11.4651 23.7883 11.8637 23.3897L21.772 13.524L27.3668 19.1188C27.4238 19.2042 27.5092 19.268 27.6231 19.3102C27.737 19.3534 27.8508 19.3751 27.9647 19.3751C28.221 19.3751 28.4345 19.2971 28.6054 19.141C28.7762 18.9839 28.8616 18.7772 28.8616 18.5209C28.8616 18.407 28.8405 18.2931 28.7984 18.1792C28.7551 18.0654 28.6908 17.9799 28.6054 17.923L22.4981 11.8157C22.1849 11.474 21.8216 11.2246 21.4082 11.0675C20.9959 10.9114 20.562 10.8334 20.1064 10.8334C19.6793 10.8334 19.2522 10.9114 18.8252 11.0675C18.3981 11.2246 18.0137 11.474 17.672 11.8157L11.6502 17.8803C11.3939 18.1365 11.1804 18.4355 11.0095 18.7772C10.8387 19.1188 10.7248 19.4605 10.6679 19.8022C10.6109 20.1438 10.6109 20.4923 10.6679 20.8477C10.7248 21.2041 10.8387 21.539 11.0095 21.8522L8.53245 24.3292C8.04842 23.6744 7.69252 22.9552 7.46474 22.1716C7.23696 21.3892 7.15155 20.5994 7.20849 19.8022C7.26543 19.0049 7.46474 18.2288 7.80641 17.4737C8.14807 16.7198 8.61786 16.0438 9.21578 15.4459L15.2377 9.42404C15.921 8.76918 16.6829 8.27091 17.5234 7.92925C18.3628 7.58758 19.2238 7.41675 20.1064 7.41675C20.989 7.41675 21.85 7.58758 22.6894 7.92925C23.5299 8.27091 24.2776 8.76918 24.9324 9.42404L25.4022 9.89383L25.872 9.42404C26.5554 8.76918 27.3167 8.27091 28.1561 7.92925C28.9966 7.58758 29.8581 7.41675 30.7408 7.41675C31.6234 7.41675 32.485 7.58758 33.3255 7.92925C34.1649 8.27091 34.912 8.76918 35.5668 9.42404L42.7845 16.6417C43.4394 17.2966 43.9377 18.0511 44.2793 18.9053C44.621 19.7595 44.7918 20.6279 44.7918 21.5105C44.7918 22.3931 44.621 23.2541 44.2793 24.0935C43.9377 24.934 43.4394 25.6817 42.7845 26.3365L28.7762 40.3022C28.3776 40.7008 27.9146 41.014 27.3873 41.2417C26.8612 41.4695 26.3134 41.5834 25.7439 41.5834Z" fill="#27AA67"/>
</g>
</svg>
