<svg width="63" height="63" viewBox="0 0 63 63" fill="none" xmlns="http://www.w3.org/2000/svg">
<mask id="mask0_1047_30231" style="mask-type:alpha" maskUnits="userSpaceOnUse" x="0" y="0" width="63" height="63">
<rect width="63" height="63" fill="#D9D9D9"/>
</mask>
<g mask="url(#mask0_1047_30231)">
<path d="M20.1111 44.3333H23.4444V39.8889H27.8889V36.5556H23.4444V32.1111H20.1111V36.5556H15.6667V39.8889H20.1111V44.3333ZM31.2222 42.6667H42.3333V39.3333H31.2222V42.6667ZM31.2222 37.1111H42.3333V33.7778H31.2222V37.1111ZM33.6667 28.6667L36.7778 25.5556L39.8889 28.6667L42.2222 26.3333L39.1111 23.1111L42.2222 20L39.8889 17.6667L36.7778 20.7778L33.6667 17.6667L31.3333 20L34.4444 23.1111L31.3333 26.3333L33.6667 28.6667ZM16.2222 24.7778H27.3333V21.4444H16.2222V24.7778ZM13.4444 51C12.2222 51 11.1756 50.5652 10.3044 49.6956C9.43481 48.8244 9 47.7778 9 46.5556V15.4444C9 14.2222 9.43481 13.1756 10.3044 12.3044C11.1756 11.4348 12.2222 11 13.4444 11H44.5556C45.7778 11 46.8244 11.4348 47.6956 12.3044C48.5652 13.1756 49 14.2222 49 15.4444V46.5556C49 47.7778 48.5652 48.8244 47.6956 49.6956C46.8244 50.5652 45.7778 51 44.5556 51H13.4444ZM13.4444 46.5556H44.5556V15.4444H13.4444V46.5556Z" fill="#27AA67"/>
</g>
</svg>
