<svg width="40" height="41" viewBox="0 0 40 41" fill="none" xmlns="http://www.w3.org/2000/svg">
<path opacity="0.5" d="M18.5766 12.2042C19.2099 11.0681 19.5266 10.5 20 10.5C20.4734 10.5 20.7901 11.0681 21.4234 12.2042L21.5873 12.4981C21.7672 12.821 21.8572 12.9824 21.9975 13.0889C22.1378 13.1954 22.3126 13.235 22.6621 13.314L22.9802 13.386C24.2101 13.6643 24.825 13.8034 24.9713 14.2739C25.1176 14.7443 24.6984 15.2345 23.86 16.215L23.643 16.4686C23.4048 16.7472 23.2857 16.8865 23.2321 17.0589C23.1785 17.2312 23.1965 17.4171 23.2325 17.7888L23.2653 18.1272C23.3921 19.4353 23.4554 20.0894 23.0724 20.3801C22.6894 20.6709 22.1137 20.4058 20.9622 19.8756L20.6643 19.7384C20.337 19.5878 20.1734 19.5124 20 19.5124C19.8266 19.5124 19.663 19.5878 19.3357 19.7384L19.0378 19.8756C17.8863 20.4058 17.3106 20.6709 16.9276 20.3801C16.5446 20.0894 16.6079 19.4353 16.7347 18.1272L16.7675 17.7888C16.8035 17.4171 16.8215 17.2312 16.7679 17.0589C16.7143 16.8865 16.5952 16.7472 16.357 16.4686L16.14 16.215C15.3016 15.2345 14.8824 14.7443 15.0287 14.2739C15.175 13.8034 15.7899 13.6643 17.0198 13.386L17.3379 13.314C17.6874 13.235 17.8622 13.1954 18.0025 13.0889C18.1428 12.9824 18.2328 12.821 18.4127 12.4981L18.5766 12.2042Z" stroke="white" stroke-width="3"/>
<path d="M31.6663 15.4999C31.6663 21.9432 26.443 27.1666 19.9997 27.1666C13.5564 27.1666 8.33301 21.9432 8.33301 15.4999C8.33301 9.0566 13.5564 3.83325 19.9997 3.83325C26.443 3.83325 31.6663 9.0566 31.6663 15.4999Z" stroke="white" stroke-width="4"/>
<path opacity="0.5" d="M12.2519 25.5L11.1904 29.3716C10.1432 33.1914 9.61955 35.1012 10.3183 36.1468C10.5632 36.5132 10.8917 36.8073 11.2729 37.0014C12.3606 37.5552 14.04 36.6801 17.3989 34.9299C18.5165 34.3476 19.0753 34.0564 19.669 33.9932C19.8891 33.9697 20.1109 33.9697 20.331 33.9932C20.9247 34.0564 21.4835 34.3476 22.6011 34.9299C25.96 36.6801 27.6394 37.5552 28.7271 37.0014C29.1083 36.8073 29.4368 36.5132 29.6817 36.1468C30.3805 35.1012 29.8568 33.1914 28.8096 29.3716L27.7481 25.5" stroke="white" stroke-width="4" stroke-linecap="round"/>
</svg>
