<svg width="169" height="55" viewBox="0 0 169 55" fill="none" xmlns="http://www.w3.org/2000/svg">
<g clip-path="url(#clip0_1047_29307)">
<path d="M42.3278 8.28758C42.0932 8.04509 41.8144 7.85271 41.5072 7.72145C41.2 7.59019 40.8705 7.52262 40.5375 7.52261C40.2044 7.52259 39.8745 7.59013 39.5664 7.72136C39.2583 7.85259 38.9781 8.04494 38.7419 8.28741L21.1479 26.3313L15.3471 20.3394C14.8701 19.8659 14.231 19.6045 13.5671 19.6112C12.9032 19.618 12.2675 19.8924 11.7964 20.3755C11.3253 20.8587 11.0564 21.512 11.0474 22.1953C11.0385 22.8786 11.2903 23.5372 11.7486 24.0299L19.3363 31.8675C19.5707 32.1099 19.8495 32.3022 20.1567 32.4334C20.4639 32.5645 20.7933 32.6318 21.1263 32.6315C21.4593 32.6319 21.7894 32.5646 22.0976 32.4335C22.4057 32.3024 22.6859 32.1101 22.9221 31.8676L42.3151 11.9782C42.5515 11.736 42.7394 11.4483 42.868 11.1317C42.9966 10.8151 43.0634 10.4757 43.0646 10.1329C43.0658 9.79019 43.0013 9.45079 42.8749 9.13415C42.7484 8.81751 42.5625 8.52984 42.3278 8.28758Z" fill="#27AA67"/>
<path d="M42.2127 38.9906L32.7398 29.2058C32.5052 28.9634 32.2264 28.771 31.9192 28.6398C31.6121 28.5086 31.2826 28.441 30.9496 28.441C30.6166 28.441 30.2867 28.5085 29.9786 28.6397C29.6705 28.7709 29.3904 28.9632 29.1542 29.2056L23.9714 34.5209C23.5125 35.014 23.2586 35.6718 23.2641 36.3534C23.2695 37.035 23.5338 37.6865 24.0004 38.1686C24.467 38.6507 25.099 38.9251 25.7613 38.9332C26.4235 38.9414 27.0635 38.6825 27.5444 38.2121L30.928 34.742L38.6133 42.6808C38.8477 42.9234 39.1265 43.1159 39.4337 43.2471C39.7409 43.3783 40.0704 43.4458 40.4035 43.4456C40.9052 43.4461 41.3962 43.2933 41.8145 43.0066C42.2328 42.72 42.5594 42.3123 42.753 41.8352C42.9466 41.3582 42.9985 40.8332 42.9021 40.3268C42.8057 39.8204 42.5654 39.3553 42.2115 38.9906L42.2127 38.9906Z" fill="#D8821B"/>
</g>
<path d="M66.648 18.94L66.504 15.948L71.864 10.3H74.744L69.912 15.5L68.472 17.036L66.648 18.94ZM64.328 21.5V10.3H66.904V21.5H64.328ZM71.992 21.5L68.008 16.62L69.704 14.78L75.016 21.5H71.992ZM76.0958 21.5V12.892H78.5918V21.5H76.0958ZM77.3438 11.692C76.8851 11.692 76.5118 11.5587 76.2238 11.292C75.9358 11.0253 75.7918 10.6947 75.7918 10.3C75.7918 9.90533 75.9358 9.57467 76.2238 9.308C76.5118 9.04133 76.8851 8.908 77.3438 8.908C77.8024 8.908 78.1758 9.036 78.4638 9.292C78.7518 9.53733 78.8958 9.85733 78.8958 10.252C78.8958 10.668 78.7518 11.0147 78.4638 11.292C78.1864 11.5587 77.8131 11.692 77.3438 11.692ZM81.0083 21.5V12.892H83.3923V15.324L83.0563 14.62C83.3123 14.012 83.7229 13.5533 84.2883 13.244C84.8536 12.924 85.5416 12.764 86.3523 12.764V15.068C86.2456 15.0573 86.1496 15.052 86.0643 15.052C85.9789 15.0413 85.8883 15.036 85.7923 15.036C85.1096 15.036 84.5549 15.2333 84.1283 15.628C83.7123 16.012 83.5043 16.6147 83.5043 17.436V21.5H81.0083ZM92.6539 21.5V19.82L92.4939 19.452V16.444C92.4939 15.9107 92.3285 15.4947 91.9979 15.196C91.6779 14.8973 91.1819 14.748 90.5099 14.748C90.0512 14.748 89.5979 14.8227 89.1499 14.972C88.7125 15.1107 88.3392 15.3027 88.0299 15.548L87.1339 13.804C87.6032 13.4733 88.1685 13.2173 88.8299 13.036C89.4912 12.8547 90.1632 12.764 90.8459 12.764C92.1579 12.764 93.1765 13.0733 93.9019 13.692C94.6272 14.3107 94.9899 15.276 94.9899 16.588V21.5H92.6539ZM90.0299 21.628C89.3579 21.628 88.7819 21.516 88.3019 21.292C87.8219 21.0573 87.4539 20.7427 87.1979 20.348C86.9419 19.9533 86.8139 19.5107 86.8139 19.02C86.8139 18.508 86.9365 18.06 87.1819 17.676C87.4379 17.292 87.8379 16.9933 88.3819 16.78C88.9259 16.556 89.6352 16.444 90.5099 16.444H92.7979V17.9H90.7819C90.1952 17.9 89.7899 17.996 89.5659 18.188C89.3525 18.38 89.2459 18.62 89.2459 18.908C89.2459 19.228 89.3685 19.484 89.6139 19.676C89.8699 19.8573 90.2165 19.948 90.6539 19.948C91.0699 19.948 91.4432 19.852 91.7739 19.66C92.1045 19.4573 92.3445 19.164 92.4939 18.78L92.8779 19.932C92.6965 20.4867 92.3659 20.908 91.8859 21.196C91.4059 21.484 90.7872 21.628 90.0299 21.628ZM97.5249 21.5V10.3H102.373C103.376 10.3 104.24 10.4653 104.965 10.796C105.69 11.116 106.25 11.58 106.645 12.188C107.04 12.796 107.237 13.5213 107.237 14.364C107.237 15.196 107.04 15.916 106.645 16.524C106.25 17.132 105.69 17.6013 104.965 17.932C104.24 18.252 103.376 18.412 102.373 18.412H98.9649L100.117 17.244V21.5H97.5249ZM100.117 17.532L98.9649 16.3H102.229C103.029 16.3 103.626 16.1293 104.021 15.788C104.416 15.4467 104.613 14.972 104.613 14.364C104.613 13.7453 104.416 13.2653 104.021 12.924C103.626 12.5827 103.029 12.412 102.229 12.412H98.9649L100.117 11.18V17.532ZM108.996 21.5V12.892H111.38V15.324L111.044 14.62C111.3 14.012 111.71 13.5533 112.276 13.244C112.841 12.924 113.529 12.764 114.34 12.764V15.068C114.233 15.0573 114.137 15.052 114.052 15.052C113.966 15.0413 113.876 15.036 113.78 15.036C113.097 15.036 112.542 15.2333 112.116 15.628C111.7 16.012 111.492 16.6147 111.492 17.436V21.5H108.996ZM120.641 21.5V19.82L120.481 19.452V16.444C120.481 15.9107 120.316 15.4947 119.985 15.196C119.665 14.8973 119.169 14.748 118.497 14.748C118.039 14.748 117.585 14.8227 117.137 14.972C116.7 15.1107 116.327 15.3027 116.017 15.548L115.121 13.804C115.591 13.4733 116.156 13.2173 116.817 13.036C117.479 12.8547 118.151 12.764 118.833 12.764C120.145 12.764 121.164 13.0733 121.889 13.692C122.615 14.3107 122.977 15.276 122.977 16.588V21.5H120.641ZM118.017 21.628C117.345 21.628 116.769 21.516 116.289 21.292C115.809 21.0573 115.441 20.7427 115.185 20.348C114.929 19.9533 114.801 19.5107 114.801 19.02C114.801 18.508 114.924 18.06 115.169 17.676C115.425 17.292 115.825 16.9933 116.369 16.78C116.913 16.556 117.623 16.444 118.497 16.444H120.785V17.9H118.769C118.183 17.9 117.777 17.996 117.553 18.188C117.34 18.38 117.233 18.62 117.233 18.908C117.233 19.228 117.356 19.484 117.601 19.676C117.857 19.8573 118.204 19.948 118.641 19.948C119.057 19.948 119.431 19.852 119.761 19.66C120.092 19.4573 120.332 19.164 120.481 18.78L120.865 19.932C120.684 20.4867 120.353 20.908 119.873 21.196C119.393 21.484 118.775 21.628 118.017 21.628ZM128.856 21.628C127.843 21.628 127.054 21.372 126.488 20.86C125.923 20.3373 125.64 19.564 125.64 18.54V10.988H128.136V18.508C128.136 18.8707 128.232 19.1533 128.424 19.356C128.616 19.548 128.878 19.644 129.208 19.644C129.603 19.644 129.939 19.5373 130.216 19.324L130.888 21.084C130.632 21.2653 130.323 21.404 129.96 21.5C129.608 21.5853 129.24 21.628 128.856 21.628ZM124.312 15.004V13.084H130.28V15.004H124.312ZM132.39 21.5V12.892H134.886V21.5H132.39ZM133.638 11.692C133.179 11.692 132.806 11.5587 132.518 11.292C132.23 11.0253 132.086 10.6947 132.086 10.3C132.086 9.90533 132.23 9.57467 132.518 9.308C132.806 9.04133 133.179 8.908 133.638 8.908C134.096 8.908 134.47 9.036 134.758 9.292C135.046 9.53733 135.19 9.85733 135.19 10.252C135.19 10.668 135.046 11.0147 134.758 11.292C134.48 11.5587 134.107 11.692 133.638 11.692ZM139.366 19.74L139.43 16.7L143.446 12.892H146.422L142.566 16.812L141.27 17.868L139.366 19.74ZM137.302 21.5V9.628H139.798V21.5H137.302ZM143.718 21.5L140.806 17.884L142.374 15.948L146.742 21.5H143.718Z" fill="#252B42"/>
<path d="M69.688 45.692C68.824 45.692 68.0187 45.5533 67.272 45.276C66.536 44.988 65.896 44.5827 65.352 44.06C64.808 43.5373 64.3813 42.924 64.072 42.22C63.7733 41.516 63.624 40.7427 63.624 39.9C63.624 39.0573 63.7733 38.284 64.072 37.58C64.3813 36.876 64.808 36.2627 65.352 35.74C65.9067 35.2173 66.552 34.8173 67.288 34.54C68.024 34.252 68.8293 34.108 69.704 34.108C70.6747 34.108 71.5493 34.2787 72.328 34.62C73.1173 34.9507 73.7787 35.4413 74.312 36.092L72.648 37.628C72.264 37.1907 71.8373 36.8653 71.368 36.652C70.8987 36.428 70.3867 36.316 69.832 36.316C69.3093 36.316 68.8293 36.4013 68.392 36.572C67.9547 36.7427 67.576 36.988 67.256 37.308C66.936 37.628 66.6853 38.0067 66.504 38.444C66.3333 38.8813 66.248 39.3667 66.248 39.9C66.248 40.4333 66.3333 40.9187 66.504 41.356C66.6853 41.7933 66.936 42.172 67.256 42.492C67.576 42.812 67.9547 43.0573 68.392 43.228C68.8293 43.3987 69.3093 43.484 69.832 43.484C70.3867 43.484 70.8987 43.3773 71.368 43.164C71.8373 42.94 72.264 42.604 72.648 42.156L74.312 43.692C73.7787 44.3427 73.1173 44.8387 72.328 45.18C71.5493 45.5213 70.6693 45.692 69.688 45.692ZM68.824 49.212C68.5467 49.212 68.2747 49.18 68.008 49.116C67.752 49.052 67.528 48.972 67.336 48.876L67.72 47.804C67.88 47.8787 68.0453 47.9373 68.216 47.98C68.3867 48.0227 68.568 48.044 68.76 48.044C69.0587 48.044 69.272 47.996 69.4 47.9C69.528 47.804 69.592 47.6813 69.592 47.532C69.592 47.3933 69.528 47.2813 69.4 47.196C69.2827 47.1107 69.0853 47.068 68.808 47.068H68.264L68.68 45.372H70.008L69.784 46.3C70.264 46.3533 70.616 46.5027 70.84 46.748C71.064 47.004 71.176 47.2973 71.176 47.628C71.176 48.108 70.9627 48.492 70.536 48.78C70.1093 49.068 69.5387 49.212 68.824 49.212ZM79.9615 45.628C78.9802 45.628 78.1162 45.436 77.3695 45.052C76.6335 44.668 76.0628 44.1453 75.6575 43.484C75.2522 42.812 75.0495 42.0493 75.0495 41.196C75.0495 40.332 75.2468 39.5693 75.6415 38.908C76.0468 38.236 76.5962 37.7133 77.2895 37.34C77.9828 36.956 78.7668 36.764 79.6415 36.764C80.4842 36.764 81.2415 36.9453 81.9135 37.308C82.5962 37.66 83.1348 38.172 83.5295 38.844C83.9242 39.5053 84.1215 40.3 84.1215 41.228C84.1215 41.324 84.1162 41.436 84.1055 41.564C84.0948 41.6813 84.0842 41.7933 84.0735 41.9H77.0815V40.444H82.7615L81.8015 40.876C81.8015 40.428 81.7108 40.0387 81.5295 39.708C81.3482 39.3773 81.0975 39.1213 80.7775 38.94C80.4575 38.748 80.0842 38.652 79.6575 38.652C79.2308 38.652 78.8522 38.748 78.5215 38.94C78.2015 39.1213 77.9508 39.3827 77.7695 39.724C77.5882 40.0547 77.4975 40.4493 77.4975 40.908V41.292C77.4975 41.7613 77.5988 42.1773 77.8015 42.54C78.0148 42.892 78.3082 43.164 78.6815 43.356C79.0655 43.5373 79.5135 43.628 80.0255 43.628C80.4842 43.628 80.8842 43.5587 81.2255 43.42C81.5775 43.2813 81.8975 43.0733 82.1855 42.796L83.5135 44.236C83.1188 44.684 82.6228 45.0307 82.0255 45.276C81.4282 45.5107 80.7402 45.628 79.9615 45.628ZM89.4033 45.628C88.3899 45.628 87.6006 45.372 87.0353 44.86C86.4699 44.3373 86.1873 43.564 86.1873 42.54V34.988H88.6833V42.508C88.6833 42.8707 88.7793 43.1533 88.9713 43.356C89.1633 43.548 89.4246 43.644 89.7553 43.644C90.1499 43.644 90.4859 43.5373 90.7633 43.324L91.4353 45.084C91.1793 45.2653 90.8699 45.404 90.5073 45.5C90.1553 45.5853 89.7873 45.628 89.4033 45.628ZM84.8593 39.004V37.084H90.8273V39.004H84.8593ZM96.9427 45.628C95.9614 45.628 95.0974 45.436 94.3507 45.052C93.6147 44.668 93.0441 44.1453 92.6387 43.484C92.2334 42.812 92.0307 42.0493 92.0307 41.196C92.0307 40.332 92.2281 39.5693 92.6227 38.908C93.0281 38.236 93.5774 37.7133 94.2707 37.34C94.9641 36.956 95.7481 36.764 96.6227 36.764C97.4654 36.764 98.2227 36.9453 98.8947 37.308C99.5774 37.66 100.116 38.172 100.511 38.844C100.905 39.5053 101.103 40.3 101.103 41.228C101.103 41.324 101.097 41.436 101.087 41.564C101.076 41.6813 101.065 41.7933 101.055 41.9H94.0627V40.444H99.7427L98.7827 40.876C98.7827 40.428 98.6921 40.0387 98.5107 39.708C98.3294 39.3773 98.0787 39.1213 97.7587 38.94C97.4387 38.748 97.0654 38.652 96.6387 38.652C96.2121 38.652 95.8334 38.748 95.5027 38.94C95.1827 39.1213 94.9321 39.3827 94.7507 39.724C94.5694 40.0547 94.4787 40.4493 94.4787 40.908V41.292C94.4787 41.7613 94.5801 42.1773 94.7827 42.54C94.9961 42.892 95.2894 43.164 95.6627 43.356C96.0467 43.5373 96.4947 43.628 97.0067 43.628C97.4654 43.628 97.8654 43.5587 98.2067 43.42C98.5587 43.2813 98.8787 43.0733 99.1667 42.796L100.495 44.236C100.1 44.684 99.6041 45.0307 99.0067 45.276C98.4094 45.5107 97.7214 45.628 96.9427 45.628ZM102.865 45.5V33.628H105.361V45.5H102.865ZM112.049 45.628C111.068 45.628 110.204 45.436 109.457 45.052C108.721 44.668 108.15 44.1453 107.745 43.484C107.34 42.812 107.137 42.0493 107.137 41.196C107.137 40.332 107.334 39.5693 107.729 38.908C108.134 38.236 108.684 37.7133 109.377 37.34C110.07 36.956 110.854 36.764 111.729 36.764C112.572 36.764 113.329 36.9453 114.001 37.308C114.684 37.66 115.222 38.172 115.617 38.844C116.012 39.5053 116.209 40.3 116.209 41.228C116.209 41.324 116.204 41.436 116.193 41.564C116.182 41.6813 116.172 41.7933 116.161 41.9H109.169V40.444H114.849L113.889 40.876C113.889 40.428 113.798 40.0387 113.617 39.708C113.436 39.3773 113.185 39.1213 112.865 38.94C112.545 38.748 112.172 38.652 111.745 38.652C111.318 38.652 110.94 38.748 110.609 38.94C110.289 39.1213 110.038 39.3827 109.857 39.724C109.676 40.0547 109.585 40.4493 109.585 40.908V41.292C109.585 41.7613 109.686 42.1773 109.889 42.54C110.102 42.892 110.396 43.164 110.769 43.356C111.153 43.5373 111.601 43.628 112.113 43.628C112.572 43.628 112.972 43.5587 113.313 43.42C113.665 43.2813 113.985 43.0733 114.273 42.796L115.601 44.236C115.206 44.684 114.71 45.0307 114.113 45.276C113.516 45.5107 112.828 45.628 112.049 45.628Z" fill="#D8821B"/>
<defs>
<clipPath id="clip0_1047_29307">
<rect width="48" height="39.5295" fill="white" transform="translate(0 7.73535)"/>
</clipPath>
</defs>
</svg>
