<svg width="81" height="80" viewBox="0 0 81 80" fill="none" xmlns="http://www.w3.org/2000/svg">
<mask id="mask0_1122_20907" style="mask-type:luminance" maskUnits="userSpaceOnUse" x="0" y="0" width="81" height="80">
<rect x="0.333008" width="80" height="80" fill="white"/>
</mask>
<g mask="url(#mask0_1122_20907)">
<rect x="62.833" y="37.5" width="8.33333" height="7.5" fill="#007B55"/>
<path fill-rule="evenodd" clip-rule="evenodd" d="M10.4352 40.4888L35.4633 28.0288C36.8881 27.3195 38.563 27.324 39.9839 28.0409L70.2396 43.307C71.0703 43.7262 71.4047 44.7409 70.9864 45.5733C70.8266 45.8911 70.5708 46.1502 70.2553 46.3136L44.9172 59.4349C43.4426 60.1985 41.6877 60.1877 40.2226 59.4059L10.393 43.4898C9.57193 43.0517 9.26077 42.0297 9.69796 41.207C9.86298 40.8965 10.1207 40.6454 10.4352 40.4888Z" fill="#005249"/>
<path fill-rule="evenodd" clip-rule="evenodd" d="M42 54.2676V58.4608C42 59.0873 41.4922 59.5951 40.8657 59.5951C40.7172 59.5951 40.5705 59.566 40.4338 59.5097L40.3333 59.4625L40.3332 51.9117C41.332 52.2642 42 53.2083 42 54.2676ZM10.3333 35.9616L40.3333 51.9117V59.4625L10.3332 43.5101L10.3325 43.4908L10.2185 43.4241C9.77308 43.1364 9.5 42.6406 9.5 42.1044V34.1666L10.3333 35.9616Z" fill="#007B55"/>
<path d="M10.4352 32.9888L35.4633 20.5288C36.8881 19.8195 38.563 19.824 39.9839 20.5409L70.2396 35.807C71.0703 36.2262 71.4047 37.2409 70.9864 38.0733C70.8266 38.3911 70.5708 38.6502 70.2553 38.8136L44.9172 51.9349C43.4426 52.6985 41.6877 52.6877 40.2226 51.9059L10.393 35.9898C9.57193 35.5517 9.26077 34.5297 9.69796 33.707C9.86298 33.3965 10.1207 33.1454 10.4352 32.9888Z" fill="#00AB55"/>
</g>
</svg>
